# xmcd
#
# Track frame offsets: 
#        150
#        12280
#        25052
#        41742
#        49800
#        65897
#        75911
#        91689
#        101620
#        116968
#        130736
#        151901
#
# Disc length: 2159 seconds
#
# Revision: 1
# Processed by: cddbd v1.5.2PL0 Copyright (c) Steve Scherf et al.
# Submitted via: ExactAudioCopy v0.99pb4
#
DISCID=91086d0c
DTITLE=Moacyr Luz e Armando Marçal - Sem Compromisso
DYEAR=1900
DGENRE=Samba
TTITLE0=A primeira vez
TTITLE1=Contentamento
TTITLE2=Agora é cinza
TTITLE3=Barão das cabrochas
TTITLE4=Rainha negra
TTITLE5=Leviana
TTITLE6=Mandingueiro
TTITLE7=Não diga a minha residência
TTITLE8=Que batique é esse
TTITLE9=Quem mandou?
TTITLE10=Zuela de Oxum
TTITLE11=Sem compromisso
EXTD=
EXTT0=
EXTT1=
EXTT2=
EXTT3=
EXTT4=
EXTT5=
EXTT6=
EXTT7=
EXTT8=
EXTT9=
EXTT10=
EXTT11=
PLAYORDER=
